# xmcd CD database file
#
# Track frame offsets:
#	150
#	22805
#	45289
#	64422
#	84932
#	117395
#	137500
#	159187
#	176565
#	204732
#
# Disc length: 3054 seconds
#
# Revision: 0
# Processed by: cddbd v1.4PL0 Copyright (c) Steve Scherf et al.
# Submitted via: CDex 1.51
#
DISCID=770bec0a
DTITLE=Joyce Cooling - Person 2 Person
DYEAR=1996
DGENRE=Jazz
TTITLE0=Savannah
TTITLE1=Another Time
TTITLE2=On The Run
TTITLE3=Say You Will
TTITLE4=Firefly
TTITLE5=How Was I To Know
TTITLE6=Dori
TTITLE7=Sleight of Hand
TTITLE8=Tres Almas
TTITLE9=Southbound
EXTD=YEAR: 1996
EXTT0=
EXTT1=
EXTT2=
EXTT3=
EXTT4=
EXTT5=
EXTT6=
EXTT7=
EXTT8=
EXTT9=
PLAYORDER=
